<svg height="512pt" viewBox="0 0 512.012 512" width="512pt" xmlns="http://www.w3.org/2000/svg"><g fill="#805333"><path d="m493.734375 82.609375c.96875 7.945313 2.207031 30.015625-8.917969 44.3125 1.058594 8.125 3.621094 39.992187-17.035156 52.789063.441406 12.449218-1.414062 35.84375-17.566406 45.375.175781 12.449218-3.179688 34.871093-26.574219 40.253906-.046875 0-.085937.039062-.085937.089844-.972657 15.710937-9.183594 52.523437-53.320313 54.554687-22.6875-17.214844-101.71875-26.574219-101.71875-26.574219l58.109375-41.3125c8.917969-2.292968 17.921875-4.058594 26.835938-6.265625 18.53125-4.308593 35.296874-14.199219 48.023437-28.335937 3.042969-3.410156 5.789063-7.074219 8.210937-10.949219 13.0625-20.476563 12.621094-41.046875 10.414063-65.675781 0-.351563-.085937-.617188-.085937-.972656-1.871094-13.832032-2.550782-27.800782-2.03125-41.753907.265624-3.792969.707031-7.589843 1.234374-11.386719 1.148438-9.066406 2.828126-18.054687 5.035157-26.921874 4.464843-13.609376 9.683593-26.957032 15.621093-39.992188 14.894532-7.375 30.292969-13.691406 46.082032-18.890625 6.152344-1.964844 12.878906-.832031 18.050781 3.039063 5.171875 3.875 8.148437 10.011718 7.992187 16.472656-.988281 5.828125-4.0625 11.101562-8.652343 14.828125.792969 5.5625 3.617187 31.691406-9.621094 47.316406zm0 0"/><path d="m467.78125 179.710938c-3 1.890624-6.277344 3.289062-9.710938 4.152343"/><path d="m440.414062 229.324219c3.371094-.851563 6.585938-2.21875 9.535157-4.0625.085937-.085938.175781-.085938.265625-.175781"/><path d="m467.78125 179.710938c0-1.585938-.089844-3-.179688-4.148438"/><path d="m450.214844 225.085938c.007812-1.417969-.078125-2.832032-.265625-4.238282"/></g><path d="m423.640625 86.757812c1.148437-9.066406 2.828125-18.054687 5.03125-26.921874 2.941406-13.542969 6.683594-26.894532 11.210937-39.992188-23.535156 11.097656-44.175781 27.507812-60.289062 47.933594-4.34375 5.808594-7.960938 12.121094-10.769531 18.804687-8.257813 18.894531-9.785157 40.050781-4.328125 59.9375.832031 3.242188 1.863281 6.425781 3.089844 9.535157 3.972656 8.253906 5.242187 17.554687 3.621093 26.570312-1.523437 5.5-4.695312 10.398438-9.09375 14.035156-10.558593 7.613282-22.679687 12.769532-35.488281 15.097656l-28.414062 22.625 28.414062 22.128907c8.917969-2.292969 17.921875-4.058594 26.835938-6.265625 18.53125-4.308594 35.296874-14.199219 48.023437-28.335938 3.042969-3.410156 5.789063-7.074218 8.210937-10.949218 12.539063-21.085938 17.75-45.730469 14.828126-70.089844 0-.351563-.085938-.617188-.085938-.972656-1.871094-13.832032-2.550781-27.800782-2.03125-41.753907.265625-3.792969.707031-7.589843 1.234375-11.386719zm0 0" fill="#af8066"/><path d="m409.695312 210.960938c-17.160156 2.042968-34.390624-3.136719-47.582031-14.300782 4.398438-3.636718 7.570313-8.535156 9.09375-14.035156 1.621094-9.015625.351563-18.316406-3.621093-26.570312-1.226563-3.109376-2.257813-6.292969-3.089844-9.535157 32.488281 3.269531 50.757812-1.5 60.027344-5.648437 2.921874 24.359375-2.289063 49.003906-14.828126 70.089844zm0 0" fill="#cb8252"/><path d="m439.882812 19.84375c-4.527343 13.097656-8.269531 26.449219-11.210937 39.992188-2.203125 8.867187-3.882813 17.855468-5.03125 26.921874-7.945313 3.882813-26.394531 9.800782-54.816406-.175781 2.808593-6.683593 6.425781-12.996093 10.769531-18.804687 16.113281-20.425782 36.753906-36.835938 60.289062-47.933594zm0 0" fill="#cb8252"/><path d="m185.386719 252.097656 32.34375 54.554688s-53.265625-3.882813-75.917969 13.332031c-44.136719-2.03125-52.347656-38.84375-53.320312-54.554687 0-.050782-.039063-.089844-.085938-.089844-23.429688-5.382813-26.785156-27.804688-26.605469-40.253906-16.15625-9.53125-18.011719-32.925782-17.570312-45.375-20.65625-12.796876-18.09375-44.664063-17.035157-52.789063-11.125-14.296875-9.886718-36.367187-8.917968-44.3125-13.238282-15.625-10.414063-41.753906-9.621094-47.316406-4.589844-3.726563-7.664062-9-8.6484375-14.828125-.1601565-6.460938 2.8164065-12.597656 7.9882815-16.472656 5.171875-3.871094 11.898437-5.003907 18.050781-3.039063 15.789063 5.199219 31.1875 11.515625 46.082031 18.890625 5.9375 13.035156 11.15625 26.382812 15.625 39.992188 2.203125 8.867187 3.882813 17.855468 5.03125 26.921874.527344 3.796876.96875 7.59375 1.234375 11.386719.519531 13.953125-.160156 27.921875-2.03125 41.753907 0 .355468-.085937.621093-.085937.972656-2.207032 24.628906-2.648438 45.199218 10.414062 65.675781 2.421875 3.875 5.167969 7.539063 8.210938 10.949219 12.730468 14.136718 29.492187 24.027344 48.023437 28.335937 8.914063 2.207031 17.917969 3.972657 26.835938 6.265625zm0 0" fill="#805333"/><path d="m45.113281 138.488281c-7.121093-1.6875-13.445312-5.769531-17.917969-11.566406" fill="#805333"/><path d="m53.941406 183.863281c-3.433594-.863281-6.710937-2.261719-9.710937-4.152343" fill="#805333"/><path d="m27.460938 124.980469s-.089844.707031-.265626 1.941406" fill="#805333"/><path d="m44.410156 175.5625c-.089844 1.148438-.179687 2.5625-.179687 4.148438" fill="#805333"/><path d="m149.898438 196.660156c-4.394532-3.636718-7.570313-8.535156-9.09375-14.035156-1.621094-9.015625-.351563-18.316406 3.621093-26.570312 1.226563-3.109376 2.261719-6.292969 3.089844-9.535157 5.457031-19.886719 3.929687-41.042969-4.328125-59.9375-2.808594-6.683593-6.425781-12.996093-10.769531-18.804687-16.113281-20.425782-36.753907-36.835938-60.289063-47.933594 4.527344 13.097656 8.269532 26.449219 11.210938 39.992188 2.203125 8.867187 3.882812 17.855468 5.03125 26.921874.527344 3.796876.96875 7.59375 1.234375 11.386719.519531 13.953125-.160157 27.921875-2.03125 41.753907 0 .355468-.085938.621093-.085938.972656-2.921875 24.359375 2.289063 49.003906 14.828125 70.089844 2.421875 3.875 5.167969 7.539062 8.210938 10.949218 12.730468 14.136719 29.492187 24.027344 48.023437 28.335938 8.914063 2.207031 17.917969 3.972656 26.835938 6.265625l41.375-18.273438-41.375-26.480469c-12.808594-2.328124-24.929688-7.484374-35.488281-15.097656zm0 0" fill="#af8066"/><path d="m149.898438 196.660156c-13.1875 11.164063-30.421876 16.34375-47.582032 14.300782-12.539062-21.085938-17.75-45.730469-14.828125-70.089844 9.269531 4.148437 27.542969 8.917968 60.027344 5.648437-.828125 3.242188-1.863281 6.425781-3.089844 9.535157-3.972656 8.253906-5.242187 17.554687-3.621093 26.570312 1.523437 5.5 4.699218 10.398438 9.09375 14.035156zm0 0" fill="#cb8252"/><path d="m143.1875 86.582031c-28.421875 9.976563-46.871094 4.058594-54.816406.175781-1.148438-9.066406-2.828125-18.054687-5.03125-26.921874-2.941406-13.542969-6.683594-26.894532-11.210938-39.992188 23.535156 11.097656 44.175782 27.507812 60.289063 47.933594 4.34375 5.808594 7.960937 12.121094 10.769531 18.804687zm0 0" fill="#cb8252"/><path d="m220.695312 176.445312c19.6875-19.683593 10.0625-34.515624 3.882813-40.871093-1.398437-1.332031-2.613281-2.847657-3.617187-4.5l-.796876-25.160157v-.089843h.089844c1.394532-2.707031 3.386719-5.058594 5.828125-6.882813 7.25-4.90625 16.308594-6.332031 24.714844-3.886718 2.0625.566406 4.070313 1.304687 6.003906 2.207031 1.515625.648437 2.988281 1.386719 4.414063 2.207031 20.304687 11.652344 30.101562 36.8125 30.101562 59.324219 0 17.652343 35.308594 52.964843 35.308594 52.964843l-68.410156 13.242188-72.828125-13.242188zm0 0" fill="#bdc3c7"/><path d="m220.960938 131.074219c-11.851563-1.429688-23.851563-1.011719-35.574219 1.234375 4.929687-15.207032 18.804687-25.738282 34.777343-26.394532v-.089843h.53125zm0 0" fill="#f0c419"/><path d="m185.386719 211.757812h141.238281v63.453126h-141.238281zm0 0" fill="#285680"/><path d="m341.105469 416.558594c18.378906 4.496094 37.21875 6.867187 56.140625 7.058594 9.140625.78125 18.273437-1.519532 25.953125-6.53125 4.8125-3.753907 7.480469-9.621094 7.152343-15.710938-.507812-7.707031-2.769531-15.199219-6.621093-21.894531-8.5625-21.539063-31.867188-42.988281-53.496094-59.496094-13.902344-10.519531-28.46875-20.132813-43.609375-28.777344h-141.238281c-15.140625 8.644531-29.707031 18.257813-43.609375 28.777344-21.628906 16.507813-44.933594 37.957031-53.496094 59.496094-3.847656 6.695312-6.113281 14.1875-6.621094 21.894531-.328125 6.089844 2.339844 11.957031 7.152344 15.710938 7.679688 5.011718 16.816406 7.3125 25.953125 6.53125 18.921875-.191407 37.761719-2.5625 56.140625-7.058594zm0 0" fill="#af8066"/><path d="m238.527344 456.015625v.175781c-.089844 2.296875-.175782 4.679688-.175782 7.152344 0 26.835938 7.945313 48.550781 17.65625 48.550781 9.707032 0 17.652344-21.714843 17.652344-48.550781 0-2.472656-.085937-4.855469-.175781-7.152344 0-.085937-.089844-.175781-.089844-.261718l23.394531-24.894532c.089844 0 .089844.085938.175782.085938 4.007812 2.675781 8.164062 5.121094 12.449218 7.328125 23.832032 12.359375 46.785157 15.359375 51.199219 6.710937 4.414063-8.652344-11.125-25.691406-34.957031-38.046875-6.546875-3.414062-13.40625-6.191406-20.480469-8.300781h-98.339843c-7.074219 2.109375-13.933594 4.886719-20.480469 8.300781-23.832031 12.355469-39.457031 29.394531-34.957031 38.046875 4.503906 8.648438 27.367187 5.648438 51.199218-6.710937 4.246094-2.191407 8.371094-4.609375 12.359375-7.238281.089844-.089844.175781-.089844.265625-.175782zm0 0" fill="#bdc3c7"/><path d="m227.582031 419.46875c-4.59375 3.316406-8.746093 7.203125-12.359375 11.566406-.089844.085938-.175781.085938-.265625.175782-4.574219 5.28125-8.679687 10.953124-12.269531 16.949218-13.859375 22.953125-18.363281 45.636719-10.0625 50.667969 8.296875 5.035156 26.394531-9.445313 40.339844-32.394531 2.039062-3.3125 3.894531-6.730469 5.5625-10.242188v-.175781c4.398437-8.273437 7.269531-17.277344 8.472656-26.570313zm0 0" fill="#e6e7e8"/><path d="m284.429688 419.46875c4.59375 3.316406 8.746093 7.203125 12.359374 11.566406.089844 0 .089844.085938.175782.085938 4.605468 5.3125 8.742187 11.011718 12.359375 17.039062 13.859375 22.953125 18.363281 45.636719 10.0625 50.667969-8.296875 5.035156-26.394531-9.445313-40.339844-32.394531-2.039063-3.3125-3.894531-6.730469-5.5625-10.242188 0-.085937-.089844-.175781-.089844-.261718-4.371093-8.25-7.214843-17.222657-8.382812-26.484376zm0 0" fill="#e6e7e8"/><path d="m35.316406 458.929688c-3.71875.003906-7.042968-2.328126-8.308594-5.824219-1.265624-3.5-.203124-7.414063 2.660157-9.792969l48.019531-39.996094c3.746094-3.121094 9.316406-2.613281 12.433594 1.132813 3.121094 3.746093 2.613281 9.3125-1.132813 12.433593l-48.023437 39.988282c-1.582032 1.328125-3.582032 2.054687-5.648438 2.058594zm0 0" fill="#f0c419"/><path d="m61.800781 467.757812c-3.804687 0-7.179687-2.433593-8.378906-6.039062l-7.433594-22.289062-22.289062-7.433594c-4.632813-1.539063-7.136719-6.542969-5.597657-11.175782 1.542969-4.632812 6.546876-7.136718 11.175782-5.597656l26.484375 8.828125c2.636719.878907 4.707031 2.949219 5.585937 5.589844l8.828125 26.480469c.90625 2.695312.457031 5.660156-1.203125 7.964844-1.664062 2.308593-4.332031 3.671874-7.171875 3.671874zm0 0" fill="#f0c419"/><path d="m476.695312 458.929688c-2.0625 0-4.0625-.71875-5.648437-2.039063l-48.023437-39.988281c-3.75-3.121094-4.261719-8.691406-1.144532-12.445313 3.121094-3.75 8.691406-4.261719 12.445313-1.140625l48.019531 39.980469c2.875 2.375 3.949219 6.296875 2.683594 9.804687-1.269532 3.507813-4.601563 5.839844-8.332032 5.828126zm0 0" fill="#f0c419"/><path d="m450.214844 467.757812c-2.839844 0-5.503906-1.363281-7.164063-3.664062-1.660156-2.300781-2.113281-5.261719-1.214843-7.953125l8.828124-26.484375c.878907-2.636719 2.949219-4.707031 5.585938-5.585938l26.484375-8.828124c2.996094-.996094 6.296875-.320313 8.65625 1.777343 2.363281 2.097657 3.425781 5.292969 2.789063 8.386719-.632813 3.09375-2.871094 5.609375-5.867188 6.609375l-22.289062 7.429687-7.433594 22.292969c-1.207032 3.597657-4.582032 6.023438-8.375 6.019531zm0 0" fill="#f0c419"/><path d="m317.445312 366.503906c-1.675781 13.242188-10.769531 51.464844-61.4375 65.941406-50.671874-14.476562-59.765624-52.699218-61.441406-65.941406zm0 0" fill="#805333"/><path d="m291.316406 264.722656h-105.929687v82.359375c.222656 7.46875 3.550781 14.507813 9.179687 19.421875 0 .089844.085938 0 .085938 0 4.933594 3.75 11.03125 5.625 17.214844 5.296875 16.207031.078125 31.855468 5.933594 44.140624 16.507813 12.28125-10.574219 27.929688-16.429688 44.136719-16.507813 6.183594.328125 12.28125-1.546875 17.214844-5.296875 0 0 .085937.089844.085937 0 5.628907-4.914062 8.957032-11.953125 9.179688-19.421875v-82.359375zm0 0" fill="#e64c3c"/><path d="m291.316406 264.722656v107.695313c-13.027344 1.878906-25.265625 7.382812-35.308594 15.890625v-123.585938zm0 0" fill="#ecf0f1"/><path d="m220.695312 264.722656v107.695313c-2.925781-.390625-5.875-.597657-8.828124-.617188-6.183594.328125-12.28125-1.546875-17.214844-5.296875 0 0-.085938.089844-.085938 0-5.628906-4.914062-8.957031-11.953125-9.179687-19.421875v-82.359375zm0 0" fill="#ecf0f1"/></svg>