<?xml version="1.0" encoding="iso-8859-1"?>
<!-- Generator: Adobe Illustrator 19.0.0, SVG Export Plug-In . SVG Version: 6.00 Build 0)  -->
<svg xmlns="http://www.w3.org/2000/svg" xmlns:xlink="http://www.w3.org/1999/xlink" version="1.1" id="Layer_1" x="0px" y="0px" viewBox="0 0 512 512" style="enable-background:new 0 0 512 512;" xml:space="preserve" width="512" height="512">
<g id="XMLID_2056_">
	<g id="XMLID_191_">
		<path id="XMLID_1117_" d="M482,54h-35.168V38c0-20.953-17.047-38-38-38s-38,17.047-38,38v16H294V38c0-20.953-17.047-38-38-38    s-38,17.047-38,38v16h-76.832V38c0-20.953-17.047-38-38-38s-38,17.047-38,38v16H30C13.458,54,0,67.458,0,84v398    c0,16.542,13.458,30,30,30h452c16.542,0,30-13.458,30-30V84C512,67.458,498.542,54,482,54z M390.832,38c0-9.925,8.075-18,18-18    s18,8.075,18,18v16h-36V38z M238,38c0-9.925,8.075-18,18-18s18,8.075,18,18v16h-36V38z M85.168,38c0-9.925,8.075-18,18-18    s18,8.075,18,18v16h-36V38z M492,482c0,5.514-4.486,10-10,10H30c-5.514,0-10-4.486-10-10V84c0-5.514,4.486-10,10-10h35.168v6    c0,20.953,17.047,38,38,38h2.332c5.522,0,10-4.477,10-10s-4.478-10-10-10h-2.332c-9.925,0-18-8.075-18-18v-6H218v6    c0,20.953,17.047,38,38,38h2.332c5.522,0,10-4.477,10-10s-4.478-10-10-10H256c-9.925,0-18-8.075-18-18v-6h132.832v6    c0,20.953,17.047,38,38,38h2.332c5.522,0,10-4.477,10-10s-4.478-10-10-10h-2.332c-9.925,0-18-8.075-18-18v-6H482    c5.514,0,10,4.486,10,10V482z"/>
		<path id="XMLID_1138_" d="M336.241,249.953c-1.834-2.893-5.021-4.646-8.445-4.646h-67.592c-5.522,0-10,4.477-10,10s4.478,10,10,10    h51.819l-44.864,95.12c-2.355,4.995-0.216,10.954,4.779,13.31c1.378,0.65,2.83,0.958,4.259,0.958c3.75,0,7.346-2.12,9.052-5.737    l51.592-109.386C338.302,256.475,338.075,252.845,336.241,249.953z"/>
		<path id="XMLID_1139_" d="M215,374.693c5.522,0,10-4.477,10-10V255.307c0-3.881-2.246-7.412-5.761-9.057    c-3.516-1.647-7.666-1.108-10.645,1.378l-27.204,22.693c-4.241,3.538-4.812,9.844-1.273,14.085    c3.538,4.242,9.846,4.811,14.084,1.273L205,276.671v88.021C205,370.216,209.478,374.693,215,374.693z"/>
		<path id="XMLID_1140_" d="M454,156H178c-5.522,0-10,4.477-10,10s4.478,10,10,10h266v220h-79.084c-5.522,0-10,4.477-10,10    s4.478,10,10,10H444v28H68V176h30c5.522,0,10-4.477,10-10s-4.478-10-10-10H58c-5.522,0-10,4.477-10,10v288c0,5.523,4.478,10,10,10    h396c5.522,0,10-4.477,10-10V166C464,160.477,459.522,156,454,156z"/>
		<path id="XMLID_1159_" d="M317.85,398.93c-1.87,1.86-2.93,4.44-2.93,7.07c0,2.63,1.06,5.21,2.93,7.07    c1.851,1.86,4.43,2.93,7.07,2.93c2.63,0,5.2-1.07,7.07-2.93c1.859-1.86,2.92-4.44,2.92-7.07c0-2.63-1.061-5.21-2.92-7.07    c-1.87-1.86-4.44-2.93-7.07-2.93C322.279,396,319.7,397.07,317.85,398.93z"/>
		<path id="XMLID_1169_" d="M138,176c2.63,0,5.21-1.07,7.069-2.93c1.86-1.86,2.931-4.44,2.931-7.07c0-2.63-1.07-5.21-2.931-7.07    c-1.859-1.86-4.43-2.93-7.069-2.93c-2.63,0-5.21,1.07-7.07,2.93c-1.86,1.86-2.93,4.44-2.93,7.07c0,2.63,1.069,5.21,2.93,7.07    S135.37,176,138,176z"/>
	</g>
</g>















</svg>
